<svg xmlns="http://www.w3.org/2000/svg" xmlns:xlink="http://www.w3.org/1999/xlink">

<symbol id="github" fill-rule="evenodd" clip-rule="evenodd" stroke-linejoin="round" stroke-miterlimit="1.414"><path d="M8 0C3.58 0 0 3.582 0 8c0 3.535 2.292 6.533 5.47 7.59.4.075.547-.172.547-.385 0-.19-.007-.693-.01-1.36-2.226.483-2.695-1.073-2.695-1.073-.364-.924-.89-1.17-.89-1.17-.725-.496.056-.486.056-.486.803.056 1.225.824 1.225.824.714 1.223 1.873.87 2.33.665.072-.517.278-.87.507-1.07-1.777-.2-3.644-.888-3.644-3.953 0-.873.31-1.587.823-2.147-.09-.202-.36-1.015.07-2.117 0 0 .67-.215 2.2.82.64-.178 1.32-.266 2-.27.68.004 1.36.092 2 .27 1.52-1.035 2.19-.82 2.19-.82.43 1.102.16 1.915.08 2.117.51.56.82 1.274.82 2.147 0 3.073-1.87 3.75-3.65 3.947.28.24.54.73.54 1.48 0 1.07-.01 1.93-.01 2.19 0 .21.14.46.55.38C13.71 14.53 16 11.53 16 8c0-4.418-3.582-8-8-8"/></symbol>

<symbol id="rss" fill-rule="evenodd" clip-rule="evenodd" stroke-linejoin="round" stroke-miterlimit="1.414"><path d="M12.8 16C12.8 8.978 7.022 3.2 0 3.2V0c8.777 0 16 7.223 16 16h-3.2zM2.194 11.61c1.21 0 2.195.985 2.195 2.196 0 1.21-.99 2.194-2.2 2.194C.98 16 0 15.017 0 13.806c0-1.21.983-2.195 2.194-2.195zM10.606 16h-3.11c0-4.113-3.383-7.497-7.496-7.497v-3.11c5.818 0 10.606 4.79 10.606 10.607z"/></symbol>

<symbol id="stackoverflow" class="svg-icon" xmlns="http://www.w3.org/2000/svg" fill-rule="evenodd" clip-rule="evenodd" stroke-linejoin="round" stroke-miterlimit="1.414"><path d="M12.658 14.577v-4.27h1.423V16H1.23v-5.693h1.42v4.27h10.006zm-8.583-1.423h7.16V11.73h-7.16v1.424zm.173-3.235l6.987 1.46.3-1.38L4.55 8.54l-.302 1.38zm.906-3.37l6.47 3.02.602-1.3-6.47-3.02-.602 1.29zm1.81-3.19l5.478 4.57.906-1.08L7.87 2.28l-.9 1.078zM10.502 0L9.338.863l4.27 5.735 1.164-.862L10.5 0z"/></symbol>

<symbol id="youtube" fill-rule="evenodd" clip-rule="evenodd" stroke-linejoin="round" stroke-miterlimit="1.414"><path d="M0 7.345c0-1.294.16-2.59.16-2.59s.156-1.1.636-1.587c.608-.637 1.408-.617 1.764-.684C3.84 2.36 8 2.324 8 2.324s3.362.004 5.6.166c.314.038.996.04 1.604.678.48.486.636 1.588.636 1.588S16 6.05 16 7.346v1.258c0 1.296-.16 2.59-.16 2.59s-.156 1.102-.636 1.588c-.608.638-1.29.64-1.604.678-2.238.162-5.6.166-5.6.166s-4.16-.037-5.44-.16c-.356-.067-1.156-.047-1.764-.684-.48-.487-.636-1.587-.636-1.587S0 9.9 0 8.605v-1.26zm6.348 2.73V5.58l4.323 2.255-4.32 2.24z"/></symbol>

<symbol id="overwatch" fill-rule="evenodd" clip-rule="evenodd" stroke-linejoin="round" stroke-miterlimit="1.414" width="16" height="16" viewBox="0 0 3000 3000" preserveAspectRatio="xMidYMid meet">
  <g
     id="layer1"
     fill="#f99e1a"
     stroke="none">
    <path
       d="M691 504 c-116 -134 -142 -170 -134 -183 16 -26 170 -126 268 -175 211 -105 401 -146 677 -146 259 0 421 32 622 122 133 60 326 183 326 209 0 14 -283 339 -295 339 -5 0 -37 -18 -70 -41 -346 -235 -815 -237 -1165 -4 -37 25 -72 45 -77 45 -5 0 -73 -75 -152 -166z"
       id="path3339" />
  </g>
  <g
     id="layer2"
     stroke="none"
     fill="#43484c"
     style="fill:#cccccc">
    <path
       d="M1319 2996 c-2 -2 -45 -9 -96 -15 -110 -12 -265 -62 -392 -125 -177 -89 -286 -170 -428 -320 -216 -226 -356 -509 -392 -797 -23 -177 -8 -496 29 -639 29 -115 113 -301 187 -417 75 -119 238 -300 261 -292 11 4 292 327 292 336 0 3 -26 33 -57 67 -222 240 -318 594 -249 922 15 72 61 207 87 256 l14 26 280 -269 280 -270 145 -312 c99 -211 151 -313 163 -315 16 -3 17 29 17 476 l0 480 -290 278 c-290 279 -290 279 -268 297 39 33 145 87 227 117 144 53 212 64 376 64 129 -1 164 -4 248 -27 120 -32 233 -80 311 -132 l59 -39 -287 -281 -287 -280 1 -478 c0 -432 2 -478 16 -475 10 2 69 119 159 313 l144 310 277 267 c152 147 281 265 285 262 13 -8 77 -185 96 -264 27 -112 24 -347 -5 -457 -51 -198 -150 -381 -266 -492 -20 -19 -36 -38 -36 -42 0 -13 280 -334 294 -337 20 -4 174 163 238 258 117 175 208 396 230 558 17 127 21 398 9 507 -37 307 -169 585 -391 818 -242 254 -540 414 -847 452 -106 13 -423 21 -434 11z"
       id="path3342"
       style="fill:#cccccc" />
  </g>
</symbol>

</svg>
